<mxfile host="app.diagrams.net" modified="2024-05-22T00:16:49.697Z" agent="Mozilla/5.0 (Windows NT 10.0; Win64; x64) AppleWebKit/537.36 (KHTML, like Gecko) Chrome/124.0.0.0 Safari/537.36" etag="Xyk9aU3eUsmQvKB2Tfwj" version="24.4.4" type="device">
  <diagram name="PÃ¡gina-1" id="qCodcxuzLoSxoYbsibZ5">
    <mxGraphModel dx="1221" dy="725" grid="1" gridSize="10" guides="1" tooltips="1" connect="1" arrows="1" fold="1" page="1" pageScale="1" pageWidth="827" pageHeight="1169" math="0" shadow="0">
      <root>
        <mxCell id="0" />
        <mxCell id="1" parent="0" />
        <mxCell id="mp0n_3jFE3tDUajIZm0b-1" value="::InterfazDeBiblitecario" style="rounded=0;whiteSpace=wrap;html=1;" parent="1" vertex="1">
          <mxGeometry x="160" y="80" width="160" height="60" as="geometry" />
        </mxCell>
        <mxCell id="mp0n_3jFE3tDUajIZm0b-6" value="::Usuario" style="rounded=0;whiteSpace=wrap;html=1;" parent="1" vertex="1">
          <mxGeometry x="443" y="80" width="78" height="60" as="geometry" />
        </mxCell>
        <mxCell id="mp0n_3jFE3tDUajIZm0b-7" value="::Libro" style="rounded=0;whiteSpace=wrap;html=1;" parent="1" vertex="1">
          <mxGeometry x="760" y="80" width="120" height="60" as="geometry" />
        </mxCell>
        <mxCell id="mp0n_3jFE3tDUajIZm0b-8" value="::Prestamo" style="rounded=0;whiteSpace=wrap;html=1;" parent="1" vertex="1">
          <mxGeometry x="580" y="80" width="120" height="60" as="geometry" />
        </mxCell>
        <mxCell id="mp0n_3jFE3tDUajIZm0b-9" value="::Contabilidad" style="rounded=0;whiteSpace=wrap;html=1;" parent="1" vertex="1">
          <mxGeometry x="920" y="80" width="120" height="60" as="geometry" />
        </mxCell>
        <mxCell id="mp0n_3jFE3tDUajIZm0b-16" value="&lt;span id=&quot;docs-internal-guid-74eef910-7fff-3b2e-8194-41c7fd450fb9&quot;&gt;&lt;span style=&quot;font-family: Arial, sans-serif; background-color: transparent; font-variant-numeric: normal; font-variant-east-asian: normal; font-variant-alternates: normal; font-variant-position: normal; vertical-align: baseline; white-space: pre-wrap;&quot;&gt;&lt;font style=&quot;font-size: 11px;&quot;&gt;crearUsuario(Nombres, Telefono, Mail)&lt;/font&gt;&lt;/span&gt;&lt;/span&gt;" style="text;html=1;align=center;verticalAlign=middle;resizable=0;points=[];autosize=1;strokeColor=none;fillColor=none;" parent="1" vertex="1">
          <mxGeometry x="262" y="190" width="210" height="30" as="geometry" />
        </mxCell>
        <mxCell id="mp0n_3jFE3tDUajIZm0b-20" value="&lt;span style=&quot;color: rgb(0, 0, 0); font-family: Arial, sans-serif; font-size: 11px; font-style: normal; font-variant-ligatures: normal; font-variant-caps: normal; font-weight: 400; letter-spacing: normal; orphans: 2; text-align: center; text-indent: 0px; text-transform: none; widows: 2; word-spacing: 0px; -webkit-text-stroke-width: 0px; white-space: pre-wrap; background-color: rgb(251, 251, 251); text-decoration-thickness: initial; text-decoration-style: initial; text-decoration-color: initial; display: inline !important; float: none;&quot;&gt;Devuelve Resultado&lt;/span&gt;" style="text;whiteSpace=wrap;html=1;" parent="1" vertex="1">
          <mxGeometry x="310" y="250" width="150" height="30" as="geometry" />
        </mxCell>
        <mxCell id="mp0n_3jFE3tDUajIZm0b-23" value="&lt;span id=&quot;docs-internal-guid-d6a4855c-7fff-c991-73bd-c32a4b5d3192&quot;&gt;&lt;span style=&quot;font-family: Arial, sans-serif; background-color: transparent; font-variant-numeric: normal; font-variant-east-asian: normal; font-variant-alternates: normal; font-variant-position: normal; vertical-align: baseline; white-space: pre-wrap;&quot;&gt;&lt;font style=&quot;font-size: 10px;&quot;&gt;realizarPrestamo(ISBNLibro, ISBNUsuario)&lt;/font&gt;&lt;/span&gt;&lt;/span&gt;" style="text;html=1;align=center;verticalAlign=middle;resizable=0;points=[];autosize=1;strokeColor=none;fillColor=none;" parent="1" vertex="1">
          <mxGeometry x="340" y="410" width="210" height="30" as="geometry" />
        </mxCell>
        <mxCell id="mp0n_3jFE3tDUajIZm0b-31" value="Devuelve resultado" style="text;html=1;align=center;verticalAlign=middle;resizable=0;points=[];autosize=1;strokeColor=none;fillColor=none;" parent="1" vertex="1">
          <mxGeometry x="375" y="582" width="130" height="30" as="geometry" />
        </mxCell>
        <mxCell id="mp0n_3jFE3tDUajIZm0b-34" value="buscarLibro(ISBMLibro)" style="text;html=1;align=center;verticalAlign=middle;resizable=0;points=[];autosize=1;strokeColor=none;fillColor=none;" parent="1" vertex="1">
          <mxGeometry x="650" y="390" width="150" height="30" as="geometry" />
        </mxCell>
        <mxCell id="mp0n_3jFE3tDUajIZm0b-35" value="Devuelve resultado" style="text;html=1;align=center;verticalAlign=middle;resizable=0;points=[];autosize=1;strokeColor=none;fillColor=none;" parent="1" vertex="1">
          <mxGeometry x="670" y="440" width="130" height="30" as="geometry" />
        </mxCell>
        <mxCell id="mp0n_3jFE3tDUajIZm0b-42" value="" style="endArrow=classic;html=1;rounded=0;exitX=1.183;exitY=0.038;exitDx=0;exitDy=0;exitPerimeter=0;entryX=0;entryY=0.25;entryDx=0;entryDy=0;" parent="1" source="mp0n_3jFE3tDUajIZm0b-2" target="mp0n_3jFE3tDUajIZm0b-21" edge="1">
          <mxGeometry width="50" height="50" relative="1" as="geometry">
            <mxPoint x="321" y="220" as="sourcePoint" />
            <mxPoint x="381" y="220" as="targetPoint" />
          </mxGeometry>
        </mxCell>
        <mxCell id="mp0n_3jFE3tDUajIZm0b-43" value="" style="endArrow=classic;html=1;rounded=0;exitX=1.183;exitY=0.038;exitDx=0;exitDy=0;exitPerimeter=0;entryX=-0.083;entryY=0.153;entryDx=0;entryDy=0;entryPerimeter=0;" parent="1" target="mp0n_3jFE3tDUajIZm0b-25" edge="1">
          <mxGeometry width="50" height="50" relative="1" as="geometry">
            <mxPoint x="250" y="400" as="sourcePoint" />
            <mxPoint x="600" y="400" as="targetPoint" />
          </mxGeometry>
        </mxCell>
        <mxCell id="mp0n_3jFE3tDUajIZm0b-44" value="" style="endArrow=classic;html=1;rounded=0;exitX=0.95;exitY=0.7;exitDx=0;exitDy=0;exitPerimeter=0;entryX=0;entryY=0.25;entryDx=0;entryDy=0;" parent="1" edge="1">
          <mxGeometry width="50" height="50" relative="1" as="geometry">
            <mxPoint x="650" y="522.25" as="sourcePoint" />
            <mxPoint x="971" y="524.75" as="targetPoint" />
          </mxGeometry>
        </mxCell>
        <mxCell id="mp0n_3jFE3tDUajIZm0b-51" value="" style="endArrow=classic;html=1;rounded=0;entryX=0;entryY=0.25;entryDx=0;entryDy=0;exitX=-0.007;exitY=0.856;exitDx=0;exitDy=0;exitPerimeter=0;" parent="1" source="mp0n_3jFE3tDUajIZm0b-34" target="mp0n_3jFE3tDUajIZm0b-33" edge="1">
          <mxGeometry width="50" height="50" relative="1" as="geometry">
            <mxPoint x="650" y="420" as="sourcePoint" />
            <mxPoint x="720" y="420" as="targetPoint" />
          </mxGeometry>
        </mxCell>
        <mxCell id="mp0n_3jFE3tDUajIZm0b-52" value="" style="endArrow=classic;html=1;rounded=0;entryX=-0.05;entryY=0.15;entryDx=0;entryDy=0;entryPerimeter=0;endFill=1;" parent="1" edge="1">
          <mxGeometry width="50" height="50" relative="1" as="geometry">
            <mxPoint x="650" y="598" as="sourcePoint" />
            <mxPoint x="809" y="597" as="targetPoint" />
          </mxGeometry>
        </mxCell>
        <mxCell id="mp0n_3jFE3tDUajIZm0b-53" value="" style="endArrow=classic;html=1;rounded=0;entryX=1.15;entryY=0.078;entryDx=0;entryDy=0;entryPerimeter=0;dashed=1;" parent="1" target="mp0n_3jFE3tDUajIZm0b-2" edge="1">
          <mxGeometry width="50" height="50" relative="1" as="geometry">
            <mxPoint x="472" y="248" as="sourcePoint" />
            <mxPoint x="412" y="248" as="targetPoint" />
          </mxGeometry>
        </mxCell>
        <mxCell id="mp0n_3jFE3tDUajIZm0b-54" value="" style="endArrow=classic;html=1;rounded=0;dashed=1;" parent="1" edge="1">
          <mxGeometry width="50" height="50" relative="1" as="geometry">
            <mxPoint x="980" y="538" as="sourcePoint" />
            <mxPoint x="650" y="538" as="targetPoint" />
          </mxGeometry>
        </mxCell>
        <mxCell id="mp0n_3jFE3tDUajIZm0b-55" value="" style="endArrow=classic;html=1;rounded=0;dashed=1;exitX=0;exitY=0.75;exitDx=0;exitDy=0;entryX=1.183;entryY=0.63;entryDx=0;entryDy=0;entryPerimeter=0;" parent="1" edge="1" target="mp0n_3jFE3tDUajIZm0b-2">
          <mxGeometry width="50" height="50" relative="1" as="geometry">
            <mxPoint x="630" y="610" as="sourcePoint" />
            <mxPoint x="250" y="615" as="targetPoint" />
          </mxGeometry>
        </mxCell>
        <mxCell id="mp0n_3jFE3tDUajIZm0b-56" value="" style="endArrow=classic;html=1;rounded=0;exitX=-0.183;exitY=0.639;exitDx=0;exitDy=0;exitPerimeter=0;dashed=1;" parent="1" source="mp0n_3jFE3tDUajIZm0b-33" edge="1">
          <mxGeometry width="50" height="50" relative="1" as="geometry">
            <mxPoint x="710" y="440" as="sourcePoint" />
            <mxPoint x="650" y="440" as="targetPoint" />
          </mxGeometry>
        </mxCell>
        <mxCell id="mp0n_3jFE3tDUajIZm0b-59" value="" style="group" parent="1" vertex="1" connectable="0">
          <mxGeometry x="460" y="290" width="40" height="64.5" as="geometry" />
        </mxCell>
        <mxCell id="mp0n_3jFE3tDUajIZm0b-57" value="" style="endArrow=none;dashed=1;html=1;rounded=0;" parent="mp0n_3jFE3tDUajIZm0b-59" edge="1">
          <mxGeometry width="50" height="50" relative="1" as="geometry">
            <mxPoint x="20" y="31.5" as="sourcePoint" />
            <mxPoint x="20" as="targetPoint" />
          </mxGeometry>
        </mxCell>
        <mxCell id="mp0n_3jFE3tDUajIZm0b-58" value="&lt;font style=&quot;font-size: 23px;&quot;&gt;X&lt;/font&gt;" style="text;html=1;align=center;verticalAlign=middle;resizable=0;points=[];autosize=1;strokeColor=none;fillColor=none;" parent="mp0n_3jFE3tDUajIZm0b-59" vertex="1">
          <mxGeometry y="24.5" width="40" height="40" as="geometry" />
        </mxCell>
        <mxCell id="mp0n_3jFE3tDUajIZm0b-21" value="" style="whiteSpace=wrap;html=1;rounded=0;" parent="1" vertex="1">
          <mxGeometry x="472" y="197" width="20" height="103" as="geometry" />
        </mxCell>
        <mxCell id="mp0n_3jFE3tDUajIZm0b-36" value="" style="whiteSpace=wrap;html=1;rounded=0;" parent="1" vertex="1">
          <mxGeometry x="970" y="508.5" width="20" height="60" as="geometry" />
        </mxCell>
        <mxCell id="HkoU2B9mdV2BVFcOOnrx-1" value="&lt;p style=&quot;line-height: 130%;&quot;&gt;&lt;span id=&quot;docs-internal-guid-05bd2aaf-7fff-f4e8-769e-c25a478a9bf0&quot;&gt;&lt;span style=&quot;font-family: Arial, sans-serif; background-color: transparent; font-variant-numeric: normal; font-variant-east-asian: normal; font-variant-alternates: normal; font-variant-position: normal; vertical-align: baseline; white-space: pre-wrap;&quot;&gt;&lt;font style=&quot;font-size: 11px;&quot;&gt;realizarDevolucion( ISBNLibro, ISBNUsuario)&lt;/font&gt;&lt;/span&gt;&lt;/span&gt;&lt;/p&gt;" style="text;html=1;align=center;verticalAlign=middle;resizable=0;points=[];autosize=1;strokeColor=none;fillColor=none;" vertex="1" parent="1">
          <mxGeometry x="320" y="700" width="240" height="50" as="geometry" />
        </mxCell>
        <mxCell id="HkoU2B9mdV2BVFcOOnrx-3" value="" style="endArrow=classic;html=1;rounded=0;exitX=1.183;exitY=0.038;exitDx=0;exitDy=0;exitPerimeter=0;entryX=-0.017;entryY=0.176;entryDx=0;entryDy=0;entryPerimeter=0;" edge="1" parent="1" target="HkoU2B9mdV2BVFcOOnrx-2">
          <mxGeometry width="50" height="50" relative="1" as="geometry">
            <mxPoint x="251" y="693" as="sourcePoint" />
            <mxPoint x="631" y="691" as="targetPoint" />
          </mxGeometry>
        </mxCell>
        <mxCell id="HkoU2B9mdV2BVFcOOnrx-4" value="" style="endArrow=none;dashed=1;html=1;rounded=0;entryX=0.5;entryY=1;entryDx=0;entryDy=0;exitX=0.5;exitY=0;exitDx=0;exitDy=0;dashPattern=1 4;" edge="1" parent="1" source="mp0n_3jFE3tDUajIZm0b-25" target="mp0n_3jFE3tDUajIZm0b-8">
          <mxGeometry width="50" height="50" relative="1" as="geometry">
            <mxPoint x="580" y="280" as="sourcePoint" />
            <mxPoint x="630" y="230" as="targetPoint" />
          </mxGeometry>
        </mxCell>
        <mxCell id="HkoU2B9mdV2BVFcOOnrx-5" value="" style="endArrow=none;dashed=1;html=1;rounded=0;exitX=0.5;exitY=0;exitDx=0;exitDy=0;dashPattern=1 4;" edge="1" parent="1" source="mp0n_3jFE3tDUajIZm0b-2">
          <mxGeometry width="50" height="50" relative="1" as="geometry">
            <mxPoint x="190" y="190" as="sourcePoint" />
            <mxPoint x="240" y="140" as="targetPoint" />
            <Array as="points">
              <mxPoint x="240" y="160" />
            </Array>
          </mxGeometry>
        </mxCell>
        <mxCell id="HkoU2B9mdV2BVFcOOnrx-6" value="" style="endArrow=none;dashed=1;html=1;rounded=0;exitX=0.5;exitY=0;exitDx=0;exitDy=0;dashPattern=1 4;" edge="1" parent="1">
          <mxGeometry width="50" height="50" relative="1" as="geometry">
            <mxPoint x="481" y="197" as="sourcePoint" />
            <mxPoint x="481" y="140" as="targetPoint" />
          </mxGeometry>
        </mxCell>
        <mxCell id="HkoU2B9mdV2BVFcOOnrx-7" value="" style="endArrow=none;dashed=1;html=1;rounded=0;entryX=0.5;entryY=1;entryDx=0;entryDy=0;exitX=0.5;exitY=0;exitDx=0;exitDy=0;dashPattern=1 4;" edge="1" parent="1" source="mp0n_3jFE3tDUajIZm0b-33">
          <mxGeometry width="50" height="50" relative="1" as="geometry">
            <mxPoint x="819.5" y="360" as="sourcePoint" />
            <mxPoint x="819.5" y="140" as="targetPoint" />
          </mxGeometry>
        </mxCell>
        <mxCell id="HkoU2B9mdV2BVFcOOnrx-8" value="" style="endArrow=none;dashed=1;html=1;rounded=0;entryX=0.5;entryY=1;entryDx=0;entryDy=0;exitX=0.5;exitY=0;exitDx=0;exitDy=0;dashPattern=1 4;" edge="1" parent="1" source="mp0n_3jFE3tDUajIZm0b-36" target="mp0n_3jFE3tDUajIZm0b-9">
          <mxGeometry width="50" height="50" relative="1" as="geometry">
            <mxPoint x="980" y="400" as="sourcePoint" />
            <mxPoint x="979.5" y="140" as="targetPoint" />
          </mxGeometry>
        </mxCell>
        <mxCell id="HkoU2B9mdV2BVFcOOnrx-9" value="" style="endArrow=none;dashed=1;html=1;rounded=0;exitX=0.5;exitY=0;exitDx=0;exitDy=0;dashPattern=1 4;" edge="1" parent="1" source="HkoU2B9mdV2BVFcOOnrx-2">
          <mxGeometry width="50" height="50" relative="1" as="geometry">
            <mxPoint x="640" y="650" as="sourcePoint" />
            <mxPoint x="640" y="590" as="targetPoint" />
            <Array as="points">
              <mxPoint x="640" y="613" />
            </Array>
          </mxGeometry>
        </mxCell>
        <mxCell id="mp0n_3jFE3tDUajIZm0b-64" value="" style="endArrow=none;dashed=1;html=1;rounded=0;exitX=0.5;exitY=0;exitDx=0;exitDy=0;dashPattern=1 4;" parent="1" edge="1" source="HkoU2B9mdV2BVFcOOnrx-10">
          <mxGeometry width="50" height="50" relative="1" as="geometry">
            <mxPoint x="979.5" y="632" as="sourcePoint" />
            <mxPoint x="979.5" y="568.5" as="targetPoint" />
          </mxGeometry>
        </mxCell>
        <mxCell id="mp0n_3jFE3tDUajIZm0b-65" value="&lt;font style=&quot;font-size: 23px;&quot;&gt;X&lt;/font&gt;" style="text;html=1;align=center;verticalAlign=middle;resizable=0;points=[];autosize=1;strokeColor=none;fillColor=none;" parent="1" vertex="1">
          <mxGeometry x="960" y="795" width="40" height="40" as="geometry" />
        </mxCell>
        <mxCell id="HkoU2B9mdV2BVFcOOnrx-11" value="tieneDeuda(ISBNUsuario)" style="text;html=1;align=center;verticalAlign=middle;resizable=0;points=[];autosize=1;strokeColor=none;fillColor=none;" vertex="1" parent="1">
          <mxGeometry x="735" y="688" width="160" height="30" as="geometry" />
        </mxCell>
        <mxCell id="HkoU2B9mdV2BVFcOOnrx-12" value="" style="endArrow=classic;html=1;rounded=0;entryX=-0.117;entryY=0.375;entryDx=0;entryDy=0;entryPerimeter=0;" edge="1" parent="1" target="HkoU2B9mdV2BVFcOOnrx-10">
          <mxGeometry width="50" height="50" relative="1" as="geometry">
            <mxPoint x="649" y="713" as="sourcePoint" />
            <mxPoint x="939" y="711" as="targetPoint" />
          </mxGeometry>
        </mxCell>
        <mxCell id="HkoU2B9mdV2BVFcOOnrx-13" value="Devuelve resultado" style="text;html=1;align=center;verticalAlign=middle;resizable=0;points=[];autosize=1;strokeColor=none;fillColor=none;" vertex="1" parent="1">
          <mxGeometry x="755" y="728.5" width="130" height="30" as="geometry" />
        </mxCell>
        <mxCell id="HkoU2B9mdV2BVFcOOnrx-14" value="" style="endArrow=classic;html=1;rounded=0;dashed=1;" edge="1" parent="1">
          <mxGeometry width="50" height="50" relative="1" as="geometry">
            <mxPoint x="980" y="728" as="sourcePoint" />
            <mxPoint x="650" y="728" as="targetPoint" />
          </mxGeometry>
        </mxCell>
        <mxCell id="mp0n_3jFE3tDUajIZm0b-61" value="" style="endArrow=none;dashed=1;html=1;rounded=0;exitX=0.5;exitY=0;exitDx=0;exitDy=0;dashPattern=1 4;" parent="1" edge="1" source="HkoU2B9mdV2BVFcOOnrx-15">
          <mxGeometry width="50" height="50" relative="1" as="geometry">
            <mxPoint x="820" y="471.5" as="sourcePoint" />
            <mxPoint x="820" y="440" as="targetPoint" />
          </mxGeometry>
        </mxCell>
        <mxCell id="mp0n_3jFE3tDUajIZm0b-62" value="&lt;font style=&quot;font-size: 23px;&quot;&gt;X&lt;/font&gt;" style="text;html=1;align=center;verticalAlign=middle;resizable=0;points=[];autosize=1;strokeColor=none;fillColor=none;" parent="1" vertex="1">
          <mxGeometry x="800" y="868.5" width="40" height="40" as="geometry" />
        </mxCell>
        <mxCell id="mp0n_3jFE3tDUajIZm0b-25" value="" style="whiteSpace=wrap;html=1;rounded=0;" parent="1" vertex="1">
          <mxGeometry x="630" y="360" width="20" height="260" as="geometry" />
        </mxCell>
        <mxCell id="mp0n_3jFE3tDUajIZm0b-33" value="" style="whiteSpace=wrap;html=1;rounded=0;" parent="1" vertex="1">
          <mxGeometry x="810" y="401" width="20" height="60" as="geometry" />
        </mxCell>
        <mxCell id="HkoU2B9mdV2BVFcOOnrx-16" value="sacarLibro(ISBNLibro)" style="text;html=1;align=center;verticalAlign=middle;resizable=0;points=[];autosize=1;strokeColor=none;fillColor=none;" vertex="1" parent="1">
          <mxGeometry x="655" y="568" width="140" height="30" as="geometry" />
        </mxCell>
        <mxCell id="mp0n_3jFE3tDUajIZm0b-38" value="TieneDeuda(ISBMUsuario)" style="text;html=1;align=center;verticalAlign=middle;resizable=0;points=[];autosize=1;strokeColor=none;fillColor=none;" parent="1" vertex="1">
          <mxGeometry x="735" y="491" width="170" height="30" as="geometry" />
        </mxCell>
        <mxCell id="mp0n_3jFE3tDUajIZm0b-39" value="Devuelve resultado" style="text;html=1;align=center;verticalAlign=middle;resizable=0;points=[];autosize=1;strokeColor=none;fillColor=none;" parent="1" vertex="1">
          <mxGeometry x="755" y="538.5" width="130" height="30" as="geometry" />
        </mxCell>
        <mxCell id="HkoU2B9mdV2BVFcOOnrx-23" value="" style="endArrow=classic;html=1;rounded=0;entryX=-0.05;entryY=0.15;entryDx=0;entryDy=0;entryPerimeter=0;endFill=1;" edge="1" parent="1">
          <mxGeometry width="50" height="50" relative="1" as="geometry">
            <mxPoint x="650" y="808" as="sourcePoint" />
            <mxPoint x="809" y="807" as="targetPoint" />
          </mxGeometry>
        </mxCell>
        <mxCell id="HkoU2B9mdV2BVFcOOnrx-24" value="agregarLibro(ISBNLibro)" style="text;html=1;align=center;verticalAlign=middle;resizable=0;points=[];autosize=1;strokeColor=none;fillColor=none;" vertex="1" parent="1">
          <mxGeometry x="650" y="778" width="150" height="30" as="geometry" />
        </mxCell>
        <mxCell id="HkoU2B9mdV2BVFcOOnrx-25" value="Devuelve resultado" style="text;html=1;align=center;verticalAlign=middle;resizable=0;points=[];autosize=1;strokeColor=none;fillColor=none;" vertex="1" parent="1">
          <mxGeometry x="381" y="800" width="130" height="30" as="geometry" />
        </mxCell>
        <mxCell id="HkoU2B9mdV2BVFcOOnrx-26" value="" style="endArrow=classic;html=1;rounded=0;dashed=1;exitX=0;exitY=0.75;exitDx=0;exitDy=0;entryX=0.95;entryY=0.962;entryDx=0;entryDy=0;entryPerimeter=0;" edge="1" parent="1" target="mp0n_3jFE3tDUajIZm0b-2">
          <mxGeometry width="50" height="50" relative="1" as="geometry">
            <mxPoint x="630" y="825" as="sourcePoint" />
            <mxPoint x="250" y="830" as="targetPoint" />
          </mxGeometry>
        </mxCell>
        <mxCell id="HkoU2B9mdV2BVFcOOnrx-27" value="" style="endArrow=none;dashed=1;html=1;rounded=0;exitX=0.5;exitY=0;exitDx=0;exitDy=0;dashPattern=1 4;" edge="1" parent="1">
          <mxGeometry width="50" height="50" relative="1" as="geometry">
            <mxPoint x="820" y="784" as="sourcePoint" />
            <mxPoint x="820" y="600" as="targetPoint" />
          </mxGeometry>
        </mxCell>
        <mxCell id="HkoU2B9mdV2BVFcOOnrx-15" value="" style="whiteSpace=wrap;html=1;rounded=0;" vertex="1" parent="1">
          <mxGeometry x="810" y="574" width="20" height="46" as="geometry" />
        </mxCell>
        <mxCell id="HkoU2B9mdV2BVFcOOnrx-28" value="" style="endArrow=none;dashed=1;html=1;rounded=0;dashPattern=1 4;" edge="1" parent="1">
          <mxGeometry width="50" height="50" relative="1" as="geometry">
            <mxPoint x="640" y="866" as="sourcePoint" />
            <mxPoint x="640" y="796" as="targetPoint" />
            <Array as="points">
              <mxPoint x="640" y="819" />
            </Array>
          </mxGeometry>
        </mxCell>
        <mxCell id="HkoU2B9mdV2BVFcOOnrx-2" value="" style="whiteSpace=wrap;html=1;rounded=0;" vertex="1" parent="1">
          <mxGeometry x="630" y="660" width="20" height="180" as="geometry" />
        </mxCell>
        <mxCell id="HkoU2B9mdV2BVFcOOnrx-29" value="" style="endArrow=none;dashed=1;html=1;rounded=0;dashPattern=1 4;" edge="1" parent="1">
          <mxGeometry width="50" height="50" relative="1" as="geometry">
            <mxPoint x="820" y="876" as="sourcePoint" />
            <mxPoint x="820" y="806" as="targetPoint" />
            <Array as="points">
              <mxPoint x="820" y="829" />
            </Array>
          </mxGeometry>
        </mxCell>
        <mxCell id="HkoU2B9mdV2BVFcOOnrx-22" value="" style="whiteSpace=wrap;html=1;rounded=0;" vertex="1" parent="1">
          <mxGeometry x="810" y="777" width="20" height="63" as="geometry" />
        </mxCell>
        <mxCell id="HkoU2B9mdV2BVFcOOnrx-30" value="" style="endArrow=none;dashed=1;html=1;rounded=0;dashPattern=1 4;" edge="1" parent="1">
          <mxGeometry width="50" height="50" relative="1" as="geometry">
            <mxPoint x="979.5" y="800" as="sourcePoint" />
            <mxPoint x="979.5" y="730" as="targetPoint" />
            <Array as="points">
              <mxPoint x="979.5" y="753" />
            </Array>
          </mxGeometry>
        </mxCell>
        <mxCell id="HkoU2B9mdV2BVFcOOnrx-10" value="" style="whiteSpace=wrap;html=1;rounded=0;" vertex="1" parent="1">
          <mxGeometry x="970" y="688" width="20" height="72" as="geometry" />
        </mxCell>
        <mxCell id="HkoU2B9mdV2BVFcOOnrx-31" value="&lt;font style=&quot;font-size: 23px;&quot;&gt;X&lt;/font&gt;" style="text;html=1;align=center;verticalAlign=middle;resizable=0;points=[];autosize=1;strokeColor=none;fillColor=none;" vertex="1" parent="1">
          <mxGeometry x="620" y="860" width="40" height="40" as="geometry" />
        </mxCell>
        <mxCell id="HkoU2B9mdV2BVFcOOnrx-32" value="&lt;font style=&quot;font-size: 23px;&quot;&gt;X&lt;/font&gt;" style="text;html=1;align=center;verticalAlign=middle;resizable=0;points=[];autosize=1;strokeColor=none;fillColor=none;" vertex="1" parent="1">
          <mxGeometry x="220" y="878.5" width="40" height="40" as="geometry" />
        </mxCell>
        <mxCell id="HkoU2B9mdV2BVFcOOnrx-33" value="" style="endArrow=none;dashed=1;html=1;rounded=0;dashPattern=1 4;" edge="1" parent="1">
          <mxGeometry width="50" height="50" relative="1" as="geometry">
            <mxPoint x="240" y="886" as="sourcePoint" />
            <mxPoint x="240" y="816" as="targetPoint" />
            <Array as="points">
              <mxPoint x="240" y="839" />
            </Array>
          </mxGeometry>
        </mxCell>
        <mxCell id="mp0n_3jFE3tDUajIZm0b-2" value="" style="whiteSpace=wrap;html=1;rounded=0;" parent="1" vertex="1">
          <mxGeometry x="230" y="197" width="20" height="653" as="geometry" />
        </mxCell>
      </root>
    </mxGraphModel>
  </diagram>
</mxfile>
